<svg id="cloud-notif" xmlns="http://www.w3.org/2000/svg" width="18" height="18" viewBox="0 0 18 18">
  <path id="Vector" d="M14.9,7.5a3.824,3.824,0,0,1-1.222,3.54,3.988,3.988,0,0,1-2.73,1.05H2.63a2.811,2.811,0,0,1,0-5.61h.037A4.686,4.686,0,0,1,8.51.22" transform="translate(1.525 2.967)" fill="none" stroke="#292d32" stroke-linecap="round" stroke-linejoin="round" stroke-width="1"/>
  <path id="Vector-2" data-name="Vector" d="M1.253.307A2.912,2.912,0,0,0,0,0" transform="translate(4.193 9.45)" fill="none" stroke="#292d32" stroke-linecap="round" stroke-linejoin="round" stroke-width="1"/>
  <path id="Vector-3" data-name="Vector" d="M5.25,2.625a2.625,2.625,0,1,1-5.25,0A2.578,2.578,0,0,1,.772.78V.773A2.6,2.6,0,0,1,2.625,0,2.628,2.628,0,0,1,5.25,2.625Z" transform="translate(11.227 3.75)" fill="none" stroke="#292d32" stroke-linecap="round" stroke-linejoin="round" stroke-width="1"/>
  <path id="Vector-4" data-name="Vector" d="M0,0H18V18H0Z" transform="translate(18 18) rotate(180)" fill="none" opacity="0"/>
</svg>
