<svg id="cloud-drizzle" xmlns="http://www.w3.org/2000/svg" width="18" height="18" viewBox="0 0 18 18">
  <path id="Vector" d="M8.608,12.031a3.971,3.971,0,0,0,.623-7.9C8.075-2.871-2.027-.216.365,6.451" transform="translate(3.85 2.969)" fill="none" stroke="#292d32" stroke-linecap="round" stroke-linejoin="round" stroke-width="1"/>
  <path id="Vector-2" data-name="Vector" d="M3.9.3A2.733,2.733,0,0,0,2.618,0a2.8,2.8,0,0,0,0,5.58" transform="translate(1.559 9.427)" fill="none" stroke="#292d32" stroke-linecap="round" stroke-linejoin="round" stroke-width="1"/>
  <path id="Vector-3" data-name="Vector" d="M0,.308A2.879,2.879,0,0,1,1.245,0" transform="translate(11.865 7.11)" fill="none" stroke="#292d32" stroke-linecap="round" stroke-linejoin="round" stroke-width="1"/>
  <path id="Vector-4" data-name="Vector" d="M1.5,0,0,1.5" transform="translate(5.977 15)" fill="none" stroke="#292d32" stroke-linecap="round" stroke-linejoin="round" stroke-width="1"/>
  <path id="Vector-5" data-name="Vector" d="M1.5,0,0,1.5" transform="translate(8.977 15)" fill="none" stroke="#292d32" stroke-linecap="round" stroke-linejoin="round" stroke-width="1"/>
  <path id="Vector-6" data-name="Vector" d="M1.5,0,0,1.5" transform="translate(8.977 12)" fill="none" stroke="#292d32" stroke-linecap="round" stroke-linejoin="round" stroke-width="1"/>
  <path id="Vector-7" data-name="Vector" d="M1.5,0,0,1.5" transform="translate(5.977 12)" fill="none" stroke="#292d32" stroke-linecap="round" stroke-linejoin="round" stroke-width="1"/>
  <path id="Vector-8" data-name="Vector" d="M0,0H18V18H0Z" transform="translate(18 18) rotate(180)" fill="none" opacity="0"/>
</svg>
