<svg id="instagram" xmlns="http://www.w3.org/2000/svg" width="20" height="20" viewBox="0 0 20 20">
  <path id="Vector" d="M5.833,16.667h5c4.167,0,5.833-1.667,5.833-5.833v-5C16.667,1.667,15,0,10.833,0h-5C1.667,0,0,1.667,0,5.833v5C0,15,1.667,16.667,5.833,16.667Z" transform="translate(1.667 1.667)" fill="none" stroke="#262626" stroke-linecap="round" stroke-linejoin="round" stroke-width="1.5"/>
  <path id="Vector-2" data-name="Vector" d="M0,0H20V20H0Z" fill="none" opacity="0"/>
  <path id="Vector-3" data-name="Vector" d="M5.833,2.917A2.917,2.917,0,1,1,2.917,0,2.917,2.917,0,0,1,5.833,2.917Z" transform="translate(7.083 7.083)" fill="none" stroke="#262626" stroke-linecap="round" stroke-linejoin="round" stroke-width="1.5"/>
  <path id="Vector-4" data-name="Vector" d="M.636.5h.01" transform="translate(14.061 5.333)" fill="none" stroke="#262626" stroke-linecap="round" stroke-linejoin="round" stroke-width="2"/>
</svg>
