<svg id="shield-tick" xmlns="http://www.w3.org/2000/svg" width="18" height="18" viewBox="0 0 18 18">
  <path id="Vector" d="M5.31.174,1.567,1.584A2.6,2.6,0,0,0,0,3.842V9.414a3.646,3.646,0,0,0,1.3,2.58L4.523,14.4a3.414,3.414,0,0,0,3.855,0L11.6,11.994a3.646,3.646,0,0,0,1.3-2.58V3.842a2.6,2.6,0,0,0-1.568-2.265L7.59.174A3.814,3.814,0,0,0,5.31.174Z" transform="translate(2.558 1.498)" fill="none" stroke="#1a1a1a" stroke-linecap="round" stroke-linejoin="round" stroke-width="1"/>
  <path id="Vector-2" data-name="Vector" d="M0,2.017,1.207,3.225,4.432,0" transform="translate(6.787 6.885)" fill="none" stroke="#1a1a1a" stroke-linecap="round" stroke-linejoin="round" stroke-width="1"/>
  <path id="Vector-3" data-name="Vector" d="M0,0H18V18H0Z" transform="translate(18 18) rotate(180)" fill="none" opacity="0"/>
</svg>
