<svg id="sun" xmlns="http://www.w3.org/2000/svg" width="18" height="18" viewBox="0 0 18 18">
  <path id="Vector" d="M9.75,4.875A4.875,4.875,0,1,1,4.875,0,4.875,4.875,0,0,1,9.75,4.875Z" transform="translate(4.125 4.125)" fill="none" stroke="#292d32" stroke-linecap="round" stroke-linejoin="round" stroke-width="1"/>
  <path id="Vector-2" data-name="Vector" d="M12.758,2.243l.1-.1ZM2.145,12.855l.1-.1ZM7.5.06v0ZM7.5,15v0ZM.06,7.5h0ZM15,7.5h0ZM2.243,2.243l-.1-.1ZM12.855,12.855l-.041-.041-.057-.057" transform="translate(1.5 1.5)" fill="none" stroke="#292d32" stroke-linecap="round" stroke-linejoin="round" stroke-width="1.5"/>
  <path id="Vector-3" data-name="Vector" d="M0,0H18V18H0Z" transform="translate(18 18) rotate(180)" fill="none" opacity="0"/>
</svg>
